<svg width="93" height="34" viewBox="0 0 93 34" fill="none" xmlns="http://www.w3.org/2000/svg">
<path d="M19.2277 22.0131C19.3712 22.2075 19.4908 22.4506 19.5864 22.7423C19.6821 23.0097 19.7299 23.265 19.7299 23.5081C19.7299 24.1644 19.4788 24.7114 18.9766 25.149C18.4983 25.5865 17.9363 25.8053 17.2906 25.8053C16.9797 25.8053 16.6808 25.7324 16.3938 25.5865C16.1068 25.4407 15.8676 25.2341 15.6763 24.9667L7.89197 14.5379L4.48408 17.8562V23.581C4.48408 24.2374 4.26884 24.7722 3.83837 25.1854C3.43181 25.5987 2.89372 25.8053 2.2241 25.8053C1.57839 25.8053 1.04031 25.5987 0.609834 25.1854C0.203278 24.7479 0 24.2131 0 23.581V2.50477C0 1.87273 0.215236 1.35008 0.645707 0.936819C1.07618 0.499249 1.62622 0.280465 2.29585 0.280465C2.94155 0.280465 3.46768 0.487095 3.87424 0.900355C4.2808 1.31362 4.48408 1.84842 4.48408 2.50477V12.423L15.9633 0.936819C16.5134 0.377703 17.0993 0.0981445 17.7211 0.0981445C18.2711 0.0981445 18.7375 0.329084 19.1201 0.790962C19.5027 1.25284 19.6941 1.73903 19.6941 2.24953C19.6941 2.76002 19.4788 3.23406 19.0484 3.67162L11.2281 11.2562L19.2277 22.0131Z" fill="white"/>
<path d="M38.6805 5.9324C39.3023 5.9324 39.8164 6.13903 40.223 6.55229C40.6296 6.96555 40.8328 7.50035 40.8328 8.15671V23.581C40.8328 24.2131 40.6296 24.7479 40.223 25.1854C39.8164 25.5987 39.3023 25.8053 38.6805 25.8053C38.0587 25.8053 37.5445 25.5987 37.138 25.1854C36.7553 24.7722 36.552 24.2495 36.5281 23.6175C35.9302 24.3225 35.1171 24.9302 34.0888 25.4407C33.0843 25.9269 32.0201 26.17 30.8961 26.17C29.246 26.17 27.7513 25.7446 26.412 24.8937C25.0728 24.0186 24.0086 22.8153 23.2194 21.2838C22.4541 19.7523 22.0715 18.0142 22.0715 16.0694C22.0715 14.1247 22.4541 12.3865 23.2194 10.8551C23.9847 9.29925 25.025 8.09593 26.3403 7.24511C27.6795 6.36997 29.1503 5.9324 30.7526 5.9324C31.9006 5.9324 32.9767 6.15118 33.9812 6.58875C34.9856 7.00201 35.8346 7.53682 36.5281 8.19317V8.15671C36.5281 7.52466 36.7314 7.00201 37.138 6.58875C37.5445 6.15118 38.0587 5.9324 38.6805 5.9324ZM31.4342 22.1589C32.9887 22.1589 34.2562 21.5876 35.2367 20.4451C36.2172 19.2783 36.7075 17.8197 36.7075 16.0694C36.7075 14.3191 36.2172 12.8606 35.2367 11.6937C34.2562 10.5269 32.9887 9.94345 31.4342 9.94345C29.9036 9.94345 28.6481 10.5269 27.6676 11.6937C26.6871 12.8606 26.1968 14.3191 26.1968 16.0694C26.1968 17.8197 26.6751 19.2783 27.6317 20.4451C28.6122 21.5876 29.8797 22.1589 31.4342 22.1589Z" fill="white"/>
<path d="M55.4705 5.9324C56.188 5.9324 56.7859 6.13903 57.2642 6.55229C57.7664 6.96555 58.0175 7.45174 58.0175 8.01085C58.0175 8.76444 57.8262 9.33571 57.4435 9.72466C57.0609 10.0893 56.6065 10.2716 56.0804 10.2716C55.7216 10.2716 55.3151 10.1865 54.8607 10.0164C54.789 9.99207 54.6215 9.94345 54.3585 9.87052C54.1193 9.79759 53.8563 9.76113 53.5693 9.76113C52.9475 9.76113 52.3496 9.9556 51.7757 10.3446C51.2017 10.7335 50.7234 11.3291 50.3408 12.1313C49.982 12.9092 49.8027 13.8451 49.8027 14.939V23.581C49.8027 24.2131 49.5994 24.7479 49.1928 25.1854C48.7863 25.5987 48.2721 25.8053 47.6503 25.8053C47.0285 25.8053 46.5143 25.5987 46.1078 25.1854C45.7012 24.7479 45.4979 24.2131 45.4979 23.581V8.52135C45.4979 7.88931 45.7012 7.36665 46.1078 6.95339C46.5143 6.51582 47.0285 6.29704 47.6503 6.29704C48.2721 6.29704 48.7863 6.51582 49.1928 6.95339C49.5994 7.36665 49.8027 7.88931 49.8027 8.52135V8.99538C50.3527 7.9987 51.1419 7.24511 52.1702 6.73461C53.1986 6.1998 54.2987 5.9324 55.4705 5.9324Z" fill="white"/>
<path d="M71.0247 5.9324C71.7421 5.9324 72.34 6.13903 72.8183 6.55229C73.3205 6.96555 73.5716 7.45174 73.5716 8.01085C73.5716 8.76444 73.3803 9.33571 72.9977 9.72466C72.615 10.0893 72.1606 10.2716 71.6345 10.2716C71.2758 10.2716 70.8692 10.1865 70.4148 10.0164C70.3431 9.99207 70.1757 9.94345 69.9126 9.87052C69.6735 9.79759 69.4104 9.76113 69.1234 9.76113C68.5016 9.76113 67.9037 9.9556 67.3298 10.3446C66.7558 10.7335 66.2775 11.3291 65.8949 12.1313C65.5362 12.9092 65.3568 13.8451 65.3568 14.939V23.581C65.3568 24.2131 65.1535 24.7479 64.747 25.1854C64.3404 25.5987 63.8262 25.8053 63.2044 25.8053C62.5826 25.8053 62.0685 25.5987 61.6619 25.1854C61.2554 24.7479 61.0521 24.2131 61.0521 23.581V8.52135C61.0521 7.88931 61.2554 7.36665 61.6619 6.95339C62.0685 6.51582 62.5826 6.29704 63.2044 6.29704C63.8262 6.29704 64.3404 6.51582 64.747 6.95339C65.1535 7.36665 65.3568 7.88931 65.3568 8.52135V8.99538C65.9068 7.9987 66.696 7.24511 67.7244 6.73461C68.7527 6.1998 69.8528 5.9324 71.0247 5.9324Z" fill="white"/>
<path d="M90.8476 6.29704C91.4694 6.29704 91.9836 6.51582 92.3902 6.95339C92.7967 7.36665 93 7.88931 93 8.52135V24.0186C93 27.1788 92.163 29.476 90.4889 30.9103C88.8149 32.3689 86.5788 33.0981 83.7807 33.0981C82.9676 33.0981 82.1306 33.0252 81.2697 32.8794C80.4326 32.7578 79.7511 32.5876 79.2249 32.3689C78.0531 31.8584 77.4672 31.1534 77.4672 30.2539C77.4672 30.0838 77.503 29.8893 77.5748 29.6705C77.7183 29.1357 77.9574 28.7225 78.2922 28.4307C78.651 28.1633 79.0336 28.0296 79.4402 28.0296C79.6793 28.0296 79.9065 28.0661 80.1217 28.139C80.2891 28.212 80.5761 28.3335 80.9827 28.5037C81.4131 28.6738 81.8556 28.8075 82.31 28.9048C82.7883 29.0263 83.2785 29.0871 83.7807 29.0871C85.4787 29.0871 86.7223 28.7103 87.5115 27.9567C88.3246 27.2274 88.7312 25.9633 88.7312 24.1644V23.7998C87.4876 25.3799 85.5505 26.17 82.9198 26.17C81.6762 26.17 80.5761 25.8783 79.6195 25.2948C78.6629 24.6871 77.9215 23.8606 77.3954 22.8153C76.8693 21.7457 76.6062 20.5302 76.6062 19.1689V8.52135C76.6062 7.88931 76.8095 7.36665 77.2161 6.95339C77.6226 6.51582 78.1368 6.29704 78.7586 6.29704C79.3804 6.29704 79.8945 6.51582 80.3011 6.95339C80.7076 7.36665 80.9109 7.88931 80.9109 8.52135V17.8562C80.9109 19.3876 81.2338 20.4937 81.8795 21.1744C82.5491 21.8307 83.5177 22.1589 84.7852 22.1589C86.0288 22.1589 86.9854 21.7943 87.655 21.065C88.3485 20.3114 88.6953 19.2418 88.6953 17.8562V8.52135C88.6953 7.88931 88.8986 7.36665 89.3051 6.95339C89.7117 6.51582 90.2259 6.29704 90.8476 6.29704Z" fill="white"/>
</svg>
